<svg width="38" height="28" viewBox="0 0 38 28" fill="none" xmlns="http://www.w3.org/2000/svg">
<path d="M37.3333 7.33329V24C37.3333 25.8333 35.8333 27.3333 34 27.3333H7.33329C6.41663 27.3333 5.66663 26.5833 5.66663 25.6666C5.66663 24.75 6.41663 24 7.33329 24H34V7.33329C34 6.41663 34.75 5.66663 35.6666 5.66663C36.5833 5.66663 37.3333 6.41663 37.3333 7.33329ZM5.66663 20.6666C2.89996 20.6666 0.666626 18.4333 0.666626 15.6666V5.66663C0.666626 2.89996 2.89996 0.666626 5.66663 0.666626H25.6666C28.4333 0.666626 30.6666 2.89996 30.6666 5.66663V17.3333C30.6666 19.1666 29.1666 20.6666 27.3333 20.6666H5.66663ZM10.6666 10.6666C10.6666 13.4333 12.9 15.6666 15.6666 15.6666C18.4333 15.6666 20.6666 13.4333 20.6666 10.6666C20.6666 7.89996 18.4333 5.66663 15.6666 5.66663C12.9 5.66663 10.6666 7.89996 10.6666 10.6666Z" fill="white"/>
</svg>
