<svg width="34" height="34" viewBox="0 0 34 34" fill="none" xmlns="http://www.w3.org/2000/svg">
<path d="M26.9167 14.4075C26.9174 14.6191 26.8707 14.8282 26.78 15.0194C26.6892 15.2107 26.5568 15.3791 26.3925 15.5125L17.8925 22.355C17.639 22.5633 17.321 22.6772 16.9929 22.6772C16.6648 22.6772 16.3468 22.5633 16.0933 22.355L7.59332 15.2716C7.30401 15.0312 7.12208 14.6856 7.08754 14.311C7.053 13.9364 7.16869 13.5634 7.40915 13.2741C7.64961 12.9848 7.99515 12.8029 8.36976 12.7684C8.74436 12.7338 9.11734 12.8495 9.40665 13.09L17 19.4225L24.5933 13.3025C24.8013 13.1292 25.0545 13.0192 25.323 12.9854C25.5915 12.9515 25.8641 12.9953 26.1085 13.1116C26.353 13.2278 26.559 13.4117 26.7022 13.6413C26.8454 13.871 26.9198 14.1368 26.9167 14.4075Z" fill="white"/>
</svg>
