<svg width="33" height="33" viewBox="0 0 33 33" fill="none" xmlns="http://www.w3.org/2000/svg">
<path d="M24.2083 1.08331H8.79165C4.53445 1.08331 1.08331 4.53445 1.08331 8.79165V24.2083C1.08331 28.4655 4.53445 31.9166 8.79165 31.9166H24.2083C28.4655 31.9166 31.9166 28.4655 31.9166 24.2083V8.79165C31.9166 4.53445 28.4655 1.08331 24.2083 1.08331Z" stroke="#3E94FE" stroke-width="2" stroke-linecap="round" stroke-linejoin="round"/>
<path d="M22.6667 15.5288C22.8569 16.8118 22.6378 18.1222 22.0404 19.2735C21.443 20.4248 20.4978 21.3585 19.3392 21.9416C18.1806 22.5248 16.8676 22.7277 15.587 22.5217C14.3064 22.3156 13.1234 21.711 12.2062 20.7938C11.289 19.8767 10.6844 18.6936 10.4784 17.413C10.2723 16.1324 10.4753 14.8195 11.0584 13.6609C11.6416 12.5023 12.5752 11.5571 13.7265 10.9597C14.8778 10.3623 16.1882 10.1431 17.4712 10.3334C18.78 10.5274 19.9916 11.1373 20.9272 12.0728C21.8627 13.0084 22.4726 14.22 22.6667 15.5288Z" stroke="#3E94FE" stroke-width="2" stroke-linecap="round" stroke-linejoin="round"/>
<path d="M24.9791 8.02081H24.9925" stroke="#3E94FE" stroke-width="2" stroke-linecap="round" stroke-linejoin="round"/>
</svg>
