<svg width="26" height="18" viewBox="0 0 26 18" fill="none" xmlns="http://www.w3.org/2000/svg">
<path d="M0.5 1.49404C0.5 0.806543 1.0575 0.250292 1.74375 0.250292L11.7563 0.250292C12.0861 0.250292 12.4025 0.38133 12.6357 0.614579C12.869 0.847827 13 1.16418 13 1.49404C13 1.82391 12.869 2.14026 12.6357 2.37351C12.4025 2.60676 12.0861 2.73779 11.7563 2.73779L1.74375 2.73779C1.05625 2.73779 0.5 2.18154 0.5 1.49404Z" fill="white"/>
<path d="M0.5 8.9999C0.5 8.3124 1.0575 7.75615 1.74375 7.75615L24.2563 7.75615C24.5861 7.75615 24.9025 7.88719 25.1357 8.12044C25.369 8.35369 25.5 8.67004 25.5 8.9999C25.5 9.32977 25.369 9.64612 25.1357 9.87937C24.9025 10.1126 24.5861 10.2437 24.2563 10.2437L1.74375 10.2437C1.05625 10.2437 0.5 9.68615 0.5 8.9999Z" fill="white"/>
<path d="M1.74375 15.2625C1.41389 15.2625 1.09754 15.3935 0.864286 15.6268C0.631039 15.86 0.5 16.1764 0.5 16.5063C0.5 16.8361 0.631039 17.1525 0.864286 17.3857C1.09754 17.619 1.41389 17.75 1.74375 17.75L16.7563 17.75C16.9196 17.75 17.0813 17.7178 17.2322 17.6553C17.3831 17.5928 17.5202 17.5012 17.6357 17.3857C17.7512 17.2702 17.8428 17.1331 17.9053 16.9822C17.9678 16.8313 18 16.6696 18 16.5063C18 16.3429 17.9678 16.1812 17.9053 16.0303C17.8428 15.8794 17.7512 15.7423 17.6357 15.6268C17.5202 15.5113 17.3831 15.4197 17.2322 15.3572C17.0813 15.2947 16.9196 15.2625 16.7563 15.2625L1.74375 15.2625Z" fill="white"/>
</svg>
