<svg width="28" height="32" viewBox="0 0 28 32" fill="none" xmlns="http://www.w3.org/2000/svg">
<path d="M7.05991 4.016C7.95078 2.46419 9.33619 1.25586 10.9947 0.584131C12.6531 -0.0875939 14.4889 -0.183922 16.2086 0.310545C17.9283 0.805011 19.4325 1.86172 20.4809 3.31177C21.5293 4.76182 22.0613 6.52147 21.9919 8.30947C21.9224 10.0975 21.2556 11.8106 20.0979 13.1749C18.9402 14.5393 17.3585 15.4762 15.6057 15.8358C13.8528 16.1954 12.03 15.957 10.4287 15.1587C8.82727 14.3604 7.53975 13.0482 6.77191 11.432C6.2589 11.8073 5.63952 12.0091 5.00391 12.008H4.00391V12.518C4.00391 12.898 4.14791 13.244 4.38391 13.506C4.58558 13.278 4.85192 13.1169 5.14745 13.044C5.44299 12.9712 5.7537 12.9901 6.03821 13.0983C6.32273 13.2064 6.56754 13.3987 6.74006 13.6495C6.91258 13.9002 7.00461 14.1976 7.00391 14.502C7.00376 14.711 6.95992 14.9177 6.87521 15.1088C6.79049 15.2999 6.66677 15.4712 6.51198 15.6117C6.35718 15.7522 6.17474 15.8587 5.97634 15.9246C5.77794 15.9904 5.56798 16.0141 5.35991 15.994C4.45914 15.9624 3.60582 15.5823 2.97978 14.9339C2.35374 14.2855 2.00387 13.4193 2.00391 12.518V5.014C2.00391 4.74878 2.10926 4.49443 2.2968 4.30689C2.48434 4.11935 2.73869 4.014 3.00391 4.014H7.00391L7.05991 4.016ZM4.00391 10.008H5.00391C5.26912 10.008 5.52348 9.90264 5.71101 9.7151C5.89855 9.52757 6.00391 9.27321 6.00391 9.008V8.268C5.99803 8.08938 5.99803 7.91062 6.00391 7.732V6.014H4.00391V10.008Z" fill="white"/>
<path d="M0 22C0 19.774 1.806 18 4.018 18H24C25.0609 18 26.0783 18.4214 26.8284 19.1716C27.5786 19.9217 28 20.9391 28 22C28 25.382 26.334 27.932 23.73 29.594C21.166 31.228 17.71 32 14 32C10.29 32 6.834 31.228 4.27 29.594C1.666 27.934 0 25.38 0 22Z" fill="white"/>
</svg>
