<svg width="38" height="40" viewBox="0 0 38 40" fill="none" xmlns="http://www.w3.org/2000/svg">
<path d="M28.2306 0C24.8322 0 22.0768 2.75846 22.0768 6.15385C22.0768 10.2538 27.4614 15.8554 27.4614 21.4908H28.9999C29.0014 15.8554 34.3845 10.4154 34.3845 6.15385C34.3845 2.75846 31.6291 0 28.2306 0ZM28.2306 2.98154C28.6474 2.98174 29.0601 3.06403 29.4451 3.22372C29.8301 3.38341 30.1799 3.61736 30.4744 3.91222C30.769 4.20709 31.0026 4.55708 31.1619 4.94223C31.3212 5.32737 31.4031 5.74013 31.4029 6.15692C31.4027 6.57372 31.3204 6.98639 31.1608 7.37138C31.0011 7.75638 30.7671 8.10614 30.4723 8.40072C30.1774 8.6953 29.8274 8.92891 29.4423 9.08823C29.0571 9.24754 28.6444 9.32943 28.2276 9.32923C27.3856 9.32882 26.5783 8.99396 25.9832 8.39832C25.3881 7.80268 25.0541 6.99504 25.0545 6.15308C25.0549 5.31112 25.3897 4.5038 25.9854 3.90874C26.581 3.31367 27.3887 2.97959 28.2306 2.98V2.98154ZM18.9999 3.07692C8.81987 3.07692 0.53833 11.3585 0.53833 21.5385C0.53833 31.7185 8.81987 40 18.9999 40C29.1799 40 37.4614 31.7185 37.4614 21.5385C37.4614 18.4462 36.6952 15.5446 35.346 12.98C35.1414 13.3862 34.9352 13.7723 34.7214 14.1831C34.3168 14.9646 33.8906 15.7538 33.5183 16.5385C33.9029 17.6385 34.1676 18.8015 34.2876 20H32.2691C32.1583 20.5154 32.0768 21 32.0768 21.4908V23.0769H34.2891C34.0803 25.2459 33.4077 27.3446 32.3168 29.2308H27.7999C28.1383 27.7877 28.3337 26.1923 28.4722 24.5677H25.4414C25.298 26.1418 25.0253 27.7014 24.626 29.2308H13.3737C12.8538 27.2173 12.5475 25.1546 12.4599 23.0769H24.3829V21.4908C24.371 20.9885 24.3066 20.4889 24.1906 20H12.4614C12.549 17.9223 12.8553 15.8596 13.3753 13.8462H21.5968C21.0632 12.8385 20.5654 11.8122 20.1045 10.7692H14.4322C15.7045 7.86615 17.386 6.15385 18.9999 6.15385C18.9999 5.08462 19.1922 4.08 19.5291 3.12462C19.3522 3.11846 19.1783 3.07692 18.9999 3.07692ZM12.6537 7.54769C12.041 8.57093 11.5259 9.64953 11.1153 10.7692H8.03833C9.36539 9.42046 10.9301 8.32831 12.6537 7.54769ZM5.68294 13.8462H10.1999C9.73455 15.8672 9.46103 17.9276 9.38294 20H3.71064C3.91868 17.8309 4.59136 15.7321 5.68294 13.8462ZM3.71064 23.0769H9.38448C9.47525 25.2692 9.75833 27.3385 10.2014 29.2308H5.68294C4.59268 27.3443 3.9201 25.2457 3.71064 23.0769ZM8.03833 32.3077H11.1153C11.5583 33.5015 12.0768 34.5738 12.6537 35.5292C10.9301 34.7486 9.36539 33.6565 8.03833 32.3077ZM14.4322 32.3077H23.5676C22.2952 35.2108 20.6137 36.9231 18.9999 36.9231C17.386 36.9231 15.7029 35.2108 14.4322 32.3077ZM26.8845 32.3077H29.9614C28.6343 33.6565 27.0697 34.7486 25.346 35.5292C25.9229 34.5754 26.4414 33.5031 26.8845 32.3077Z" fill="white"/>
</svg>
