<svg width="92" height="92" viewBox="0 0 92 92" fill="none" xmlns="http://www.w3.org/2000/svg">
<circle cx="45.5" cy="45.5" r="34.5" fill="#3E94FE"/>
<path d="M54.9167 42.4075C54.9174 42.6191 54.8707 42.8282 54.78 43.0194C54.6893 43.2107 54.5569 43.3791 54.3925 43.5125L45.8925 50.355C45.639 50.5633 45.3211 50.6772 44.9929 50.6772C44.6648 50.6772 44.3468 50.5633 44.0933 50.355L35.5933 43.2716C35.304 43.0312 35.1221 42.6856 35.0876 42.311C35.053 41.9364 35.1687 41.5634 35.4092 41.2741C35.6496 40.9848 35.9952 40.8029 36.3698 40.7684C36.7444 40.7338 37.1174 40.8495 37.4067 41.09L45 47.4225L52.5933 41.3025C52.8013 41.1292 53.0545 41.0192 53.323 40.9854C53.5916 40.9515 53.8642 40.9953 54.1086 41.1116C54.353 41.2278 54.559 41.4117 54.7022 41.6413C54.8454 41.871 54.9198 42.1368 54.9167 42.4075Z" fill="white"/>
<circle cx="46" cy="46" r="45.5" stroke="white"/>
</svg>
