<svg width="15" height="21" viewBox="0 0 15 21" fill="none" xmlns="http://www.w3.org/2000/svg">
<path d="M7.5 6.1875C6.7375 6.1875 6.00623 6.4904 5.46707 7.02957C4.9279 7.56873 4.625 8.3 4.625 9.0625C4.625 9.825 4.9279 10.5563 5.46707 11.0954C6.00623 11.6346 6.7375 11.9375 7.5 11.9375C8.2625 11.9375 8.99376 11.6346 9.53293 11.0954C10.0721 10.5563 10.375 9.825 10.375 9.0625C10.375 8.3 10.0721 7.56873 9.53293 7.02957C8.99376 6.4904 8.2625 6.1875 7.5 6.1875Z" fill="#3E94FE"/>
<path d="M4.18654 13.375C3.71073 13.375 3.19467 13.7171 3.15154 14.3194C3.11848 14.7722 3.15873 15.6448 3.81279 16.4081C4.47548 17.1844 5.63698 17.6875 7.49998 17.6875C9.36298 17.6875 10.5245 17.1844 11.1886 16.4081C11.8412 15.6448 11.8815 14.7722 11.8499 14.3194C11.8067 13.7157 11.2892 13.375 10.8134 13.375H4.18654Z" fill="#3E94FE"/>
<path d="M11.6903 1.875H12.5312C13.1031 1.875 13.6516 2.10218 14.0559 2.50655C14.4603 2.91093 14.6875 3.45938 14.6875 4.03125V18.4062C14.6875 18.9781 14.4603 19.5266 14.0559 19.931C13.6516 20.3353 13.1031 20.5625 12.5312 20.5625H2.46875C1.89688 20.5625 1.34843 20.3353 0.944051 19.931C0.539676 19.5266 0.3125 18.9781 0.3125 18.4062V4.03125C0.3125 3.45938 0.539676 2.91093 0.944051 2.50655C1.34843 2.10218 1.89688 1.875 2.46875 1.875H3.30969C3.45839 1.45442 3.73387 1.09031 4.09817 0.832853C4.46247 0.575396 4.89766 0.437266 5.34375 0.4375H9.65625C10.1023 0.437266 10.5375 0.575396 10.9018 0.832853C11.2661 1.09031 11.5416 1.45442 11.6903 1.875ZM3.30969 3.3125H2.46875C2.27813 3.3125 2.09531 3.38823 1.96052 3.52302C1.82573 3.65781 1.75 3.84063 1.75 4.03125V18.4062C1.75 18.5969 1.82573 18.7797 1.96052 18.9145C2.09531 19.0493 2.27813 19.125 2.46875 19.125H12.5312C12.7219 19.125 12.9047 19.0493 13.0395 18.9145C13.1743 18.7797 13.25 18.5969 13.25 18.4062V4.03125C13.25 3.84063 13.1743 3.65781 13.0395 3.52302C12.9047 3.38823 12.7219 3.3125 12.5312 3.3125H11.6903C11.5416 3.73308 11.2661 4.09719 10.9018 4.35465C10.5375 4.6121 10.1023 4.75023 9.65625 4.75H5.34375C4.89766 4.75023 4.46247 4.6121 4.09817 4.35465C3.73387 4.09719 3.45839 3.73308 3.30969 3.3125ZM4.625 2.59375C4.625 2.78437 4.70073 2.96719 4.83552 3.10198C4.97031 3.23677 5.15313 3.3125 5.34375 3.3125H9.65625C9.84687 3.3125 10.0297 3.23677 10.1645 3.10198C10.2993 2.96719 10.375 2.78437 10.375 2.59375C10.375 2.40313 10.2993 2.22031 10.1645 2.08552C10.0297 1.95073 9.84687 1.875 9.65625 1.875H5.34375C5.15313 1.875 4.97031 1.95073 4.83552 2.08552C4.70073 2.22031 4.625 2.40313 4.625 2.59375Z" fill="#3E94FE"/>
</svg>
