<svg width="40" height="40" viewBox="0 0 40 40" fill="none" xmlns="http://www.w3.org/2000/svg">
<circle cx="19.7483" cy="19.7483" r="19.7483" fill="#3E94FE" fill-opacity="0.2"/>
<path d="M20.5 10.4375C18.4039 10.44 16.3943 11.2737 14.9122 12.7559C13.43 14.2381 12.5962 16.2476 12.5938 18.3438C12.5912 20.0567 13.1508 21.7232 14.1865 23.0875C14.1865 23.0875 14.4021 23.3714 14.4374 23.4124L20.5 30.5625L26.5655 23.4088C26.5972 23.3707 26.8135 23.0875 26.8135 23.0875L26.8142 23.0853C27.8494 21.7216 28.4087 20.0559 28.4063 18.3438C28.4038 16.2476 27.57 14.2381 26.0878 12.7559C24.6057 11.2737 22.5961 10.44 20.5 10.4375ZM20.5 21.2188C19.9314 21.2188 19.3755 21.0501 18.9027 20.7342C18.43 20.4183 18.0615 19.9693 17.8439 19.444C17.6263 18.9186 17.5693 18.3406 17.6803 17.7829C17.7912 17.2252 18.065 16.7129 18.4671 16.3108C18.8692 15.9087 19.3814 15.6349 19.9391 15.524C20.4968 15.4131 21.0749 15.47 21.6002 15.6876C22.1256 15.9052 22.5746 16.2737 22.8905 16.7465C23.2064 17.2193 23.375 17.7751 23.375 18.3438C23.3741 19.106 23.0708 19.8367 22.5319 20.3756C21.9929 20.9146 21.2622 21.2178 20.5 21.2188Z" fill="#3E94FE"/>
</svg>
