<svg width="70" height="70" viewBox="0 0 70 70" fill="none" xmlns="http://www.w3.org/2000/svg">
<circle cx="35.4016" cy="35" r="34.5" fill="white" fill-opacity="0.03"/>
<circle cx="35.4016" cy="35" r="34" stroke="white" stroke-opacity="0.5"/>
<path d="M32.3091 24.5833C32.5208 24.5826 32.7299 24.6293 32.9211 24.72C33.1123 24.8108 33.2808 24.9432 33.4141 25.1075L40.2566 33.6075C40.465 33.861 40.5789 34.179 40.5789 34.5071C40.5789 34.8352 40.465 35.1532 40.2566 35.4067L33.1733 43.9067C32.9328 44.196 32.5873 44.3779 32.2127 44.4125C31.8381 44.447 31.4651 44.3313 31.1758 44.0908C30.8865 43.8504 30.7046 43.5048 30.67 43.1302C30.6355 42.7556 30.7512 42.3827 30.9916 42.0933L37.3241 34.5L31.2041 26.9067C31.0309 26.6987 30.9209 26.4455 30.887 26.177C30.8532 25.9085 30.897 25.6359 31.0133 25.3915C31.1295 25.147 31.3133 24.941 31.543 24.7978C31.7726 24.6546 32.0385 24.5802 32.3091 24.5833Z" fill="white"/>
</svg>
