<svg width="51" height="31" viewBox="0 0 51 31" fill="none" xmlns="http://www.w3.org/2000/svg">
<path d="M24.1577 27.843C24.2757 27.9438 24.4036 28.0446 24.5289 28.1429C22.0372 29.797 19.1122 30.6779 16.1214 30.675C14.1279 30.6766 12.1536 30.2852 10.3114 29.5232C8.46929 28.7612 6.79541 27.6436 5.38554 26.2342C3.97567 24.8247 2.85746 23.1512 2.09487 21.3093C1.33228 19.4674 0.940255 17.4932 0.941225 15.4997C0.940966 12.754 1.68538 10.0597 3.0952 7.70365C4.50502 5.34758 6.52746 3.41799 8.94713 2.12037C11.3668 0.822745 14.0931 0.205676 16.8357 0.334872C19.5783 0.464069 22.2346 1.33469 24.5216 2.85403C24.3986 2.95974 24.2757 3.05562 24.1823 3.16378C22.4103 4.69389 20.9885 6.58764 20.0137 8.71627C19.0389 10.8449 18.5339 13.1585 18.5331 15.4997C18.5331 20.232 20.5808 24.7307 24.1577 27.843ZM34.8785 0.32195C31.8904 0.316138 28.9677 1.19738 26.4808 2.85403C26.6013 2.95974 26.7242 3.05562 26.8176 3.16378C30.4117 6.26866 32.4693 10.7699 32.4693 15.4997C32.4693 20.2295 30.4166 24.7258 26.8447 27.843C26.7242 27.9438 26.5964 28.0446 26.4735 28.1429C28.9631 29.7975 31.8867 30.6785 34.876 30.675C36.8853 30.7007 38.8797 30.3272 40.7435 29.5762C42.6072 28.8251 44.3033 27.7114 45.7333 26.2997C47.1633 24.888 48.2988 23.2064 49.0738 21.3525C49.8488 19.4985 50.248 17.5091 50.2482 15.4997C50.2483 13.4903 49.8495 11.5008 49.0748 9.64676C48.3 7.79269 47.1649 6.11091 45.7351 4.69899C44.3053 3.28706 42.6094 2.1731 40.7457 1.42173C38.8821 0.670363 36.8878 0.29654 34.8785 0.32195ZM25.5 3.57678C23.6926 4.99392 22.2318 6.80407 21.2282 8.86991C20.2247 10.9358 19.7049 13.203 19.7081 15.4997C19.7034 17.7977 20.2225 20.0665 21.2261 22.1338C22.2297 24.2011 23.6914 26.0123 25.5 27.43C27.3081 26.0117 28.7695 24.2004 29.7734 22.1333C30.7774 20.0662 31.2975 17.7977 31.2943 15.4997C31.2976 13.2028 30.7775 10.9352 29.7735 8.86932C28.7696 6.80341 27.308 4.99342 25.5 3.57678Z" fill="#12171E" fill-opacity="0.654531"/>
</svg>
