<svg width="31" height="25" viewBox="0 0 31 25" fill="none" xmlns="http://www.w3.org/2000/svg">
<path d="M27.2676 6.3288C27.2876 6.59859 27.2876 6.86684 27.2876 7.13509C27.2876 15.3445 21.0393 24.8041 9.62012 24.8041C6.10204 24.8041 2.83371 23.7851 0.083374 22.0153C0.582874 22.0723 1.06387 22.0923 1.58342 22.0923C4.37845 22.0991 7.09433 21.1645 9.29329 19.4391C7.9974 19.4157 6.74118 18.9881 5.70003 18.2162C4.65889 17.4442 3.88479 16.3664 3.48583 15.1333C3.86971 15.1903 4.25512 15.2288 4.65904 15.2288C5.21558 15.2288 5.77521 15.1518 6.29475 15.0176C4.88838 14.7337 3.62377 13.9714 2.71595 12.8604C1.80814 11.7493 1.31315 10.3582 1.31517 8.92342V8.84634C2.14304 9.3073 3.1035 9.59559 4.121 9.63413C3.26859 9.0677 2.56965 8.29908 2.08652 7.39685C1.6034 6.49461 1.35111 5.48682 1.35217 4.46338C1.35217 3.31021 1.65896 2.25263 2.197 1.33071C3.75738 3.25012 5.70353 4.82037 7.90939 5.93977C10.1153 7.05917 12.5317 7.70275 15.0021 7.82884C14.9065 7.36634 14.8479 6.88688 14.8479 6.40588C14.8475 5.59028 15.0079 4.78259 15.3198 4.029C15.6317 3.2754 16.0891 2.59068 16.6658 2.01396C17.2425 1.43724 17.9273 0.979846 18.6809 0.667916C19.4345 0.355986 20.2421 0.19564 21.0578 0.196046C22.8461 0.196046 24.4602 0.945295 25.5949 2.15705C26.9851 1.88821 28.3183 1.3807 29.5354 0.657004C29.072 2.09201 28.1013 3.30883 26.8051 4.0795C28.0381 3.93887 29.2431 3.61462 30.3802 3.1175C29.531 4.35561 28.4786 5.44133 27.2676 6.3288Z" fill="#3E94FE"/>
</svg>
