<svg width="86" height="28" viewBox="0 0 86 28" fill="none" xmlns="http://www.w3.org/2000/svg">
<path d="M62.2908 2.04058C60.3151 1.32068 58.2267 0.959422 56.124 0.973834C49.324 0.973834 44.5215 4.39933 44.4875 9.31658C44.445 12.9291 47.9003 14.9648 50.514 16.1718C53.1958 17.4128 54.0925 18.1948 54.084 19.3041C54.067 20.9913 51.942 21.7563 49.9658 21.7563C47.25 21.7563 45.7668 21.3781 43.4845 20.4303L42.6388 20.0351L41.674 25.6961C43.3273 26.3846 46.3065 26.9753 49.3835 27.0263C56.6128 27.0263 61.3388 23.6221 61.394 18.3903C61.4535 15.5046 59.5835 13.3243 55.648 11.5223C53.2553 10.3536 51.772 9.57158 51.772 8.38583C51.772 7.33608 53.0428 6.21408 55.699 6.21408C57.4668 6.17131 59.2237 6.50299 60.8543 7.18734L61.4918 7.47208L62.4565 2.00233L62.2908 2.04058ZM79.9368 1.43283H74.6243C72.971 1.43283 71.7258 1.88758 71.0033 3.52808L60.7863 26.6736H68.0155L69.4605 22.8783L78.2835 22.8868C78.4918 23.7751 79.1293 26.6736 79.1293 26.6736H85.5043L79.9368 1.43283ZM34.7083 1.22033H41.5975L37.288 26.4738H30.4073L34.7083 1.21183V1.22033ZM17.2195 15.1391L17.9335 18.6453L24.6655 1.43283H31.9628L21.121 26.6396H13.8408L7.89077 5.29608C7.7944 4.94415 7.56808 4.64189 7.25751 4.45033C5.11297 3.34252 2.84068 2.50183 0.491516 1.94708L0.585016 1.41583H11.6733C13.1778 1.47533 14.389 1.94708 14.7928 3.55358L17.2153 15.1518V15.1391H17.2195ZM71.4368 17.7146L74.1823 10.6511C74.1483 10.7276 74.7475 9.19333 75.096 8.24558L75.5678 10.4258L77.1615 17.7103H71.4325V17.7146H71.4368Z" fill="#12171E" fill-opacity="0.654531"/>
</svg>
