<svg width="31" height="23" viewBox="0 0 31 23" fill="none" xmlns="http://www.w3.org/2000/svg">
<path d="M15.5093 22.3101H15.4785C15.3829 22.3101 5.81992 22.2916 3.40721 21.6364C2.7553 21.4608 2.16096 21.117 1.68369 20.6395C1.20642 20.1619 0.862966 19.5674 0.687713 18.9154C0.253863 16.4678 0.0443549 13.9857 0.0617965 11.5C0.0505958 9.01021 0.265773 6.52458 0.704672 4.07377C0.884877 3.42068 1.22992 2.82487 1.70668 2.34352C2.18344 1.86217 2.77592 1.51143 3.42725 1.32498C5.77367 0.708313 15.073 0.708313 15.4677 0.708313H15.5C15.5972 0.708313 25.1848 0.726813 27.5728 1.38202C28.8971 1.74123 29.9316 2.77569 30.2893 4.09998C30.7363 6.5574 30.9475 9.05027 30.9167 11.5478C30.9275 14.0345 30.7118 16.5171 30.2723 18.9647C30.0948 19.616 29.7499 20.2095 29.272 20.6863C28.7942 21.1631 28.1999 21.5066 27.5482 21.6827C25.2048 22.304 15.904 22.3101 15.5093 22.3101ZM12.426 6.88269L12.4183 16.1327L20.4534 11.5077L12.426 6.88269Z" fill="#3E94FE"/>
</svg>
